<svg xmlns="http://www.w3.org/2000/svg" width="43" height="43" viewBox="0 0 43 43" fill="none">
<path d="M25.75 21.3498H26.55C26.8683 21.3498 27.1735 21.4908 27.3985 21.7418C27.6236 21.9929 27.75 22.3334 27.75 22.6884V28.9352C27.75 29.2902 27.6236 29.6307 27.3985 29.8817C27.1735 30.1328 26.8683 30.2738 26.55 30.2738H16.95C16.6317 30.2738 16.3265 30.1328 16.1015 29.8817C15.8764 29.6307 15.75 29.2902 15.75 28.9352V22.6884C15.75 22.3334 15.8764 21.9929 16.1015 21.7418C16.3265 21.4908 16.6317 21.3498 16.95 21.3498H17.75M25.75 21.3498V16.8878C25.75 15.3997 24.95 12.4258 21.75 12.4258C18.55 12.4258 17.75 15.3997 17.75 16.8878V21.3498M25.75 21.3498H17.75" stroke="url(#paint0_linear_570_3365)" stroke-width="2" stroke-linecap="round" stroke-linejoin="round"/>
<path d="M1.75 12.4257L21.214 1.56966C21.3805 1.47697 21.564 1.42871 21.75 1.42871C21.936 1.42871 22.1195 1.47697 22.286 1.56966L41.75 12.4257M37.75 19.1187V36.9667C37.75 38.1501 37.3286 39.285 36.5784 40.1218C35.8283 40.9586 34.8109 41.4287 33.75 41.4287H9.75C8.68913 41.4287 7.67172 40.9586 6.92157 40.1218C6.17143 39.285 5.75 38.1501 5.75 36.9667V19.1187" stroke="url(#paint1_linear_570_3365)" stroke-width="2" stroke-linecap="round" stroke-linejoin="round"/>
<defs>
<linearGradient id="paint0_linear_570_3365" x1="15.7517" y1="21.3482" x2="27.752" y2="21.3482" gradientUnits="userSpaceOnUse">
<stop stop-color="#186B99"/>
<stop offset="1" stop-color="#22A5AB"/>
</linearGradient>
<linearGradient id="paint1_linear_570_3365" x1="1.75576" y1="21.4251" x2="41.7568" y2="21.4251" gradientUnits="userSpaceOnUse">
<stop stop-color="#186B99"/>
<stop offset="1" stop-color="#22A5AB"/>
</linearGradient>
</defs>
</svg>
