<svg xmlns="http://www.w3.org/2000/svg" width="41" height="40" viewBox="0 0 41 40" fill="none">
<path d="M17.75 25.0206C17.087 25.0206 16.4511 24.7572 15.9822 24.2883C15.5134 23.8195 15.25 23.1836 15.25 22.5206V7.72808C11.5498 8.36493 8.22286 10.3658 5.92586 13.3358C3.62886 16.3058 2.52876 20.0289 2.84272 23.7704C3.15667 27.5118 4.86188 30.9996 7.62171 33.5452C10.3815 36.0908 13.9954 37.5093 17.75 37.5206C21.2949 37.5201 24.7252 36.2646 27.4329 33.9766C30.1405 31.6885 31.9507 28.5158 32.5425 25.0206H17.75ZM15.2575 5.19558C16.625 5.00058 17.75 6.14058 17.75 7.52058V22.5206H32.75C34.13 22.5206 35.27 23.6456 35.075 25.0131C34.4344 29.3849 32.1643 33.3527 28.7201 36.1204C25.2759 38.8881 20.9125 40.251 16.5053 39.9356C12.0981 39.6202 7.9732 37.6497 4.95828 34.4197C1.94336 31.1897 0.261442 26.939 0.25 22.5206C0.250221 18.3108 1.76752 14.2422 4.52383 11.0602C7.28013 7.87827 11.0908 5.7962 15.2575 5.19558ZM22.75 17.5206V2.52058C26.7282 2.52058 30.5436 4.10093 33.3566 6.91398C36.1696 9.72702 37.75 13.5423 37.75 17.5206H22.75ZM37.905 20.0206C39.15 20.0206 40.2225 19.1056 40.2475 17.8606L40.25 17.5206C40.2501 15.1938 39.7862 12.8903 38.8854 10.7449C37.9846 8.59954 36.665 6.65534 35.0039 5.02606C33.3427 3.39678 31.3733 2.11513 29.2108 1.25609C27.0484 0.39705 24.7364 -0.0221279 22.41 0.0230788C21.165 0.0480788 20.25 1.12308 20.25 2.36558V17.5206C20.25 18.1836 20.5134 18.8195 20.9822 19.2883C21.4511 19.7572 22.087 20.0206 22.75 20.0206H37.905Z" fill="url(#paint0_linear_570_3379)"/>
<defs>
<linearGradient id="paint0_linear_570_3379" x1="0.255761" y1="19.9964" x2="40.2568" y2="19.9964" gradientUnits="userSpaceOnUse">
<stop stop-color="#186B99"/>
<stop offset="1" stop-color="#22A5AB"/>
</linearGradient>
</defs>
</svg>
