<svg width="29" height="29" viewBox="0 0 29 29" fill="none" xmlns="http://www.w3.org/2000/svg">
<path d="M22.4789 3.54932C23.1064 3.54932 23.7083 3.79861 24.152 4.24236C24.5958 4.68611 24.8451 5.28796 24.8451 5.91551V22.4789C24.8451 23.1064 24.5958 23.7083 24.152 24.152C23.7083 24.5958 23.1064 24.8451 22.4789 24.8451H5.91551C5.28796 24.8451 4.68611 24.5958 4.24236 24.152C3.79861 23.7083 3.54932 23.1064 3.54932 22.4789V5.91551C3.54932 5.28796 3.79861 4.68611 4.24236 4.24236C4.68611 3.79861 5.28796 3.54932 5.91551 3.54932H22.4789ZM21.8873 21.8873V15.6169C21.8873 14.594 21.481 13.613 20.7577 12.8897C20.0344 12.1664 19.0534 11.76 18.0304 11.76C17.0248 11.76 15.8535 12.3752 15.2857 13.298V11.9848H11.9848V21.8873H15.2857V16.0547C15.2857 15.1437 16.0192 14.3983 16.9302 14.3983C17.3694 14.3983 17.7907 14.5728 18.1014 14.8835C18.412 15.1941 18.5865 15.6154 18.5865 16.0547V21.8873H21.8873ZM8.13974 10.1273C8.66688 10.1273 9.17244 9.91794 9.54519 9.54519C9.91794 9.17244 10.1273 8.66688 10.1273 8.13974C10.1273 7.03946 9.24002 6.1403 8.13974 6.1403C7.60946 6.1403 7.10089 6.35096 6.72592 6.72592C6.35096 7.10089 6.1403 7.60946 6.1403 8.13974C6.1403 9.24002 7.03946 10.1273 8.13974 10.1273ZM9.78425 21.8873V11.9848H6.50706V21.8873H9.78425Z" fill="white"/>
</svg>
