<svg width="25" height="24" viewBox="0 0 25 24" fill="none" xmlns="http://www.w3.org/2000/svg">
<path d="M12.3438 2.25C10.4154 2.25 8.53032 2.82183 6.92694 3.89317C5.32357 4.96451 4.07388 6.48726 3.33593 8.26884C2.59797 10.0504 2.40489 12.0108 2.7811 13.9021C3.1573 15.7934 4.0859 17.5307 5.44946 18.8943C6.81303 20.2579 8.55031 21.1865 10.4416 21.5627C12.3329 21.9389 14.2933 21.7458 16.0749 21.0078C17.8565 20.2699 19.3792 19.0202 20.4506 17.4168C21.5219 15.8134 22.0938 13.9284 22.0938 12C22.091 9.41498 21.0629 6.93661 19.235 5.10872C17.4071 3.28084 14.9288 2.25273 12.3438 2.25ZM12.3438 18C12.1213 18 11.9037 17.934 11.7187 17.8104C11.5337 17.6868 11.3895 17.5111 11.3044 17.3055C11.2192 17.1 11.197 16.8738 11.2404 16.6555C11.2838 16.4373 11.3909 16.2368 11.5483 16.0795C11.7056 15.9222 11.906 15.815 12.1243 15.7716C12.3425 15.7282 12.5687 15.7505 12.7743 15.8356C12.9798 15.9208 13.1555 16.065 13.2792 16.25C13.4028 16.435 13.4688 16.6525 13.4688 16.875C13.4688 17.1734 13.3502 17.4595 13.1392 17.6705C12.9283 17.8815 12.6421 18 12.3438 18ZM13.0938 13.4325V13.5C13.0938 13.6989 13.0147 13.8897 12.8741 14.0303C12.7334 14.171 12.5427 14.25 12.3438 14.25C12.1448 14.25 11.9541 14.171 11.8134 14.0303C11.6728 13.8897 11.5938 13.6989 11.5938 13.5V12.75C11.5938 12.5511 11.6728 12.3603 11.8134 12.2197C11.9541 12.079 12.1448 12 12.3438 12C13.5841 12 14.5938 11.1562 14.5938 10.125C14.5938 9.09375 13.5841 8.25 12.3438 8.25C11.1034 8.25 10.0938 9.09375 10.0938 10.125V10.5C10.0938 10.6989 10.0147 10.8897 9.87408 11.0303C9.73343 11.171 9.54267 11.25 9.34375 11.25C9.14484 11.25 8.95408 11.171 8.81342 11.0303C8.67277 10.8897 8.59375 10.6989 8.59375 10.5V10.125C8.59375 8.26406 10.2756 6.75 12.3438 6.75C14.4119 6.75 16.0938 8.26406 16.0938 10.125C16.0938 11.7544 14.8038 13.1184 13.0938 13.4325Z" fill="#22A5AB"/>
</svg>
