<svg width="25" height="24" viewBox="0 0 25 24" fill="none" xmlns="http://www.w3.org/2000/svg">
<path d="M16.8998 12.906L16.4448 13.359C16.4448 13.359 15.3618 14.435 12.4068 11.497C9.45175 8.55898 10.5348 7.48298 10.5348 7.48298L10.8208 7.19698C11.5278 6.49498 11.5948 5.36698 10.9778 4.54298L9.71775 2.85998C8.95375 1.83998 7.47875 1.70498 6.60375 2.57498L5.03375 4.13498C4.60075 4.56698 4.31075 5.12498 4.34575 5.74498C4.43575 7.33198 5.15375 10.745 9.15775 14.727C13.4048 18.949 17.3898 19.117 19.0188 18.965C19.5348 18.917 19.9828 18.655 20.3438 18.295L21.7638 16.883C22.7238 15.93 22.4538 14.295 21.2258 13.628L19.3158 12.589C18.5098 12.151 17.5298 12.28 16.8998 12.906Z" fill="#22A5AB"/>
</svg>
