<svg width="16" height="12" viewBox="0 0 16 12" fill="none" xmlns="http://www.w3.org/2000/svg">
<path d="M2.84895 0C2.19797 0 1.57365 0.258603 1.11333 0.71892C0.653012 1.17924 0.394409 1.80356 0.394409 2.45455V9.54545C0.394409 10.1964 0.653012 10.8208 1.11333 11.2811C1.57365 11.7414 2.19797 12 2.84895 12H13.2126C13.8636 12 14.4879 11.7414 14.9482 11.2811C15.4085 10.8208 15.6671 10.1964 15.6671 9.54545V2.45455C15.6671 1.80356 15.4085 1.17924 14.9482 0.71892C14.4879 0.258603 13.8636 0 13.2126 0H2.84895ZM14.5762 2.94709L8.03077 6.47127L1.48532 2.94709V2.45455C1.48532 2.09289 1.62899 1.74604 1.88472 1.49031C2.14045 1.23458 2.4873 1.09091 2.84895 1.09091H13.2126C13.5743 1.09091 13.9211 1.23458 14.1768 1.49031C14.4326 1.74604 14.5762 2.09289 14.5762 2.45455V2.94709ZM1.48532 4.18582L7.77223 7.57146C7.85169 7.61423 7.94053 7.63662 8.03077 7.63662C8.12102 7.63662 8.20986 7.61423 8.28932 7.57146L14.5762 4.18582V9.54545C14.5762 9.90711 14.4326 10.254 14.1768 10.5097C13.9211 10.7654 13.5743 10.9091 13.2126 10.9091H2.84895C2.4873 10.9091 2.14045 10.7654 1.88472 10.5097C1.62899 10.254 1.48532 9.90711 1.48532 9.54545V4.18582Z" fill="white"/>
</svg>
