<svg width="21" height="20" viewBox="0 0 21 20" fill="none" xmlns="http://www.w3.org/2000/svg">
<g clip-path="url(#clip0_651_1485)">
<path d="M0.534668 8V16C0.534668 16.5304 0.745382 17.0391 1.12045 17.4142C1.49553 17.7893 2.00423 18 2.53467 18H18.5347C19.0651 18 19.5738 17.7893 19.9489 17.4142C20.324 17.0391 20.5347 16.5304 20.5347 16V8L10.5347 12L0.534668 8Z" fill="#22A5AB"/>
<path d="M2.53467 2C2.00423 2 1.49553 2.21071 1.12045 2.58579C0.745382 2.96086 0.534668 3.46957 0.534668 4L0.534668 6L10.5347 10L20.5347 6V4C20.5347 3.46957 20.324 2.96086 19.9489 2.58579C19.5738 2.21071 19.0651 2 18.5347 2H2.53467Z" fill="#22A5AB"/>
</g>
<defs>
<clipPath id="clip0_651_1485">
<rect width="20" height="20" fill="white" transform="translate(0.534668)"/>
</clipPath>
</defs>
</svg>
