<svg width="16" height="16" viewBox="0 0 16 16" fill="none" xmlns="http://www.w3.org/2000/svg">
<path d="M3.50899 8.00034V5.16817C3.51787 4.61146 3.64262 4.06188 3.8761 3.55093C4.10957 3.03997 4.44717 2.57768 4.86957 2.19054C5.29197 1.8034 5.79085 1.49902 6.33764 1.29484C6.88442 1.09066 7.46837 0.990699 8.056 1.00068C8.64364 0.990699 9.22758 1.09066 9.77437 1.29484C10.3212 1.49902 10.82 1.8034 11.2424 2.19054C11.6648 2.57768 12.0024 3.03997 12.2359 3.55093C12.4694 4.06188 12.5941 4.61146 12.603 5.16817V8.00034M10.3295 13.6539C10.9325 13.6539 11.5108 13.427 11.9371 13.0231C12.3635 12.6192 12.603 12.0714 12.603 11.5002V9.07721M10.3295 13.6539C10.3295 14.0109 10.1798 14.3533 9.91332 14.6057C9.64685 14.8582 9.28542 15 8.90857 15H7.20344C6.82658 15 6.46516 14.8582 6.19868 14.6057C5.9322 14.3533 5.7825 14.0109 5.7825 13.6539C5.7825 13.2969 5.9322 12.9545 6.19868 12.7021C6.46516 12.4496 6.82658 12.3078 7.20344 12.3078H8.90857C9.28542 12.3078 9.64685 12.4496 9.91332 12.7021C10.1798 12.9545 10.3295 13.2969 10.3295 13.6539ZM1.80387 6.38503H2.94062C3.09136 6.38503 3.23593 6.44176 3.34252 6.54274C3.44911 6.64371 3.50899 6.78067 3.50899 6.92347V10.1541C3.50899 10.2969 3.44911 10.4338 3.34252 10.5348C3.23593 10.6358 3.09136 10.6925 2.94062 10.6925H1.80387C1.50238 10.6925 1.21324 10.5791 1.00006 10.3771C0.786879 10.1752 0.667114 9.90125 0.667114 9.61565V7.4619C0.667114 7.1763 0.786879 6.90239 1.00006 6.70044C1.21324 6.49849 1.50238 6.38503 1.80387 6.38503ZM14.3081 10.6925H13.1714C13.0206 10.6925 12.8761 10.6358 12.7695 10.5348C12.6629 10.4338 12.603 10.2969 12.603 10.1541V6.92347C12.603 6.78067 12.6629 6.64371 12.7695 6.54274C12.8761 6.44176 13.0206 6.38503 13.1714 6.38503H14.3081C14.6096 6.38503 14.8988 6.49849 15.1119 6.70044C15.3251 6.90239 15.4449 7.1763 15.4449 7.4619V9.61565C15.4449 9.90125 15.3251 10.1752 15.1119 10.3771C14.8988 10.5791 14.6096 10.6925 14.3081 10.6925Z" stroke="white" stroke-linecap="round" stroke-linejoin="round"/>
</svg>
