<svg width="25" height="24" viewBox="0 0 25 24" fill="none" xmlns="http://www.w3.org/2000/svg">
<path d="M12.5347 2.25C10.6063 2.25 8.72124 2.82183 7.11786 3.89317C5.51448 4.96452 4.2648 6.48726 3.52685 8.26884C2.78889 10.0504 2.59581 12.0108 2.97202 13.9021C3.34822 15.7934 4.27682 17.5307 5.64038 18.8943C7.00394 20.2579 8.74123 21.1865 10.6325 21.5627C12.5239 21.9389 14.4843 21.7458 16.2658 21.0078C18.0474 20.2699 19.5702 19.0202 20.6415 17.4168C21.7128 15.8134 22.2847 13.9284 22.2847 12C22.2819 9.41498 21.2538 6.93661 19.4259 5.10872C17.5981 3.28084 15.1197 2.25273 12.5347 2.25ZM12.5347 18C12.3122 18 12.0947 17.934 11.9097 17.8104C11.7247 17.6868 11.5805 17.5111 11.4953 17.3055C11.4102 17.1 11.3879 16.8738 11.4313 16.6555C11.4747 16.4373 11.5818 16.2368 11.7392 16.0795C11.8965 15.9222 12.097 15.815 12.3152 15.7716C12.5334 15.7282 12.7596 15.7505 12.9652 15.8356C13.1708 15.9208 13.3465 16.065 13.4701 16.25C13.5937 16.435 13.6597 16.6525 13.6597 16.875C13.6597 17.1734 13.5411 17.4595 13.3302 17.6705C13.1192 17.8815 12.833 18 12.5347 18ZM13.2847 13.4325V13.5C13.2847 13.6989 13.2057 13.8897 13.065 14.0303C12.9244 14.171 12.7336 14.25 12.5347 14.25C12.3358 14.25 12.145 14.171 12.0043 14.0303C11.8637 13.8897 11.7847 13.6989 11.7847 13.5V12.75C11.7847 12.5511 11.8637 12.3603 12.0043 12.2197C12.145 12.079 12.3358 12 12.5347 12C13.775 12 14.7847 11.1562 14.7847 10.125C14.7847 9.09375 13.775 8.25 12.5347 8.25C11.2944 8.25 10.2847 9.09375 10.2847 10.125V10.5C10.2847 10.6989 10.2057 10.8897 10.065 11.0303C9.92435 11.171 9.73358 11.25 9.53467 11.25C9.33576 11.25 9.14499 11.171 9.00434 11.0303C8.86369 10.8897 8.78467 10.6989 8.78467 10.5V10.125C8.78467 8.26406 10.4665 6.75 12.5347 6.75C14.6028 6.75 16.2847 8.26406 16.2847 10.125C16.2847 11.7544 14.9947 13.1184 13.2847 13.4325Z" fill="#22A5AB"/>
</svg>
