<svg width="25" height="24" viewBox="0 0 25 24" fill="none" xmlns="http://www.w3.org/2000/svg">
<path d="M15.9363 3.02719C15.0241 2.04234 13.75 1.5 12.3438 1.5C10.93 1.5 9.65174 2.03906 8.74377 3.01781C7.82596 4.00734 7.37877 5.35219 7.48377 6.80437C7.6919 9.66937 9.87206 12 12.3438 12C14.8155 12 16.9919 9.66984 17.2033 6.80531C17.3097 5.36625 16.8597 4.02422 15.9363 3.02719ZM20.5938 22.5H4.09377C3.8778 22.5028 3.66392 22.4574 3.46769 22.3672C3.27147 22.2769 3.09782 22.1441 2.9594 21.9783C2.65471 21.6141 2.5319 21.1167 2.62284 20.6137C3.01846 18.4191 4.25315 16.5755 6.19377 15.2812C7.91784 14.1323 10.1017 13.5 12.3438 13.5C14.5858 13.5 16.7697 14.1328 18.4938 15.2812C20.4344 16.575 21.6691 18.4186 22.0647 20.6133C22.1556 21.1162 22.0328 21.6136 21.7281 21.9778C21.5898 22.1437 21.4161 22.2766 21.2199 22.367C21.0237 22.4573 20.8098 22.5028 20.5938 22.5Z" fill="#22A5AB"/>
</svg>
