<svg width="25" height="24" viewBox="0 0 25 24" fill="none" xmlns="http://www.w3.org/2000/svg">
<g clip-path="url(#clip0_651_1488)">
<path fill-rule="evenodd" clip-rule="evenodd" d="M19.4949 3C20.2969 3 21.066 3.31607 21.6331 3.87868C22.2002 4.44129 22.5188 5.20435 22.5188 6V16C22.5188 16.7956 22.2002 17.5587 21.6331 18.1213C21.066 18.6839 20.2969 19 19.4949 19H7.73505L4.37553 21.5C3.54498 22.118 2.35962 21.53 2.35962 20.5V6C2.35962 5.20435 2.6782 4.44129 3.24529 3.87868C3.81238 3.31607 4.58151 3 5.38349 3H19.4949ZM11.4312 12H8.40736C8.14003 12 7.88366 12.1054 7.69463 12.2929C7.5056 12.4804 7.3994 12.7348 7.3994 13C7.3994 13.2652 7.5056 13.5196 7.69463 13.7071C7.88366 13.8946 8.14003 14 8.40736 14H11.4312C11.6986 14 11.9549 13.8946 12.144 13.7071C12.333 13.5196 12.4392 13.2652 12.4392 13C12.4392 12.7348 12.333 12.4804 12.144 12.2929C11.9549 12.1054 11.6986 12 11.4312 12ZM16.471 8H8.40736C8.15045 8.00028 7.90335 8.09788 7.71654 8.27285C7.52973 8.44782 7.41731 8.68695 7.40225 8.94139C7.3872 9.19584 7.47064 9.44638 7.63553 9.64183C7.80042 9.83729 8.03432 9.9629 8.28943 9.993L8.40736 10H16.471C16.7279 9.99972 16.975 9.90212 17.1618 9.72715C17.3486 9.55218 17.4611 9.31305 17.4761 9.05861C17.4912 8.80416 17.4077 8.55362 17.2428 8.35817C17.078 8.16271 16.8441 8.0371 16.5889 8.007L16.471 8Z" fill="#22A5AB"/>
</g>
<defs>
<clipPath id="clip0_651_1488">
<rect width="24.191" height="24" fill="white" transform="translate(0.34375)"/>
</clipPath>
</defs>
</svg>
