<svg width="24" height="24" viewBox="0 0 24 24" fill="none" xmlns="http://www.w3.org/2000/svg">
<g clip-path="url(#clip0_651_1469)">
<path d="M12.0012 0C18.6288 0 24.0012 5.3724 24.0012 12C24.0012 18.6276 18.6288 24 12.0012 24C9.88057 24.0034 7.79722 23.4422 5.96524 22.374L0.00603758 24L1.62844 18.0384C0.559349 16.2058 -0.00230535 14.1216 0.00123736 12C0.00123736 5.3724 5.37364 0 12.0012 0ZM7.91164 6.36L7.67164 6.3696C7.51626 6.37906 7.36441 6.41988 7.22524 6.4896C7.09506 6.56332 6.97623 6.65547 6.87244 6.7632C6.72844 6.8988 6.64684 7.0164 6.55924 7.1304C6.11538 7.70748 5.8764 8.41598 5.88004 9.144C5.88244 9.732 6.03604 10.3044 6.27604 10.8396C6.76684 11.922 7.57444 13.068 8.64004 14.13C8.89684 14.3856 9.14884 14.6424 9.42004 14.8812C10.7441 16.047 12.3219 16.8876 14.028 17.3364L14.7096 17.4408C14.9316 17.4528 15.1536 17.436 15.3768 17.4252C15.7263 17.4072 16.0676 17.3125 16.3764 17.148C16.5336 17.0671 16.6869 16.979 16.836 16.884C16.836 16.884 16.8876 16.8504 16.986 16.776C17.148 16.656 17.2476 16.5708 17.382 16.4304C17.4816 16.3272 17.568 16.206 17.634 16.068C17.7276 15.8724 17.8212 15.4992 17.8596 15.1884C17.8884 14.9508 17.88 14.8212 17.8764 14.7408C17.8716 14.6124 17.7648 14.4792 17.6484 14.4228L16.95 14.1096C16.95 14.1096 15.906 13.6548 15.2676 13.3644C15.2008 13.3352 15.1293 13.3186 15.0564 13.3152C14.9743 13.3068 14.8914 13.316 14.8131 13.3423C14.7349 13.3686 14.6632 13.4113 14.6028 13.4676C14.5968 13.4652 14.5164 13.5336 13.6488 14.5848C13.599 14.6517 13.5304 14.7023 13.4518 14.7301C13.3732 14.7578 13.288 14.7616 13.2072 14.7408C13.1291 14.7198 13.0525 14.6934 12.978 14.6616C12.8292 14.5992 12.7776 14.5752 12.6756 14.532C11.9869 14.2315 11.3493 13.8254 10.7856 13.3284C10.6344 13.1964 10.494 13.0524 10.35 12.9132C9.87794 12.4611 9.46651 11.9496 9.12604 11.3916L9.05524 11.2776C9.00438 11.201 8.96327 11.1184 8.93284 11.0316C8.88724 10.8552 9.00604 10.7136 9.00604 10.7136C9.00604 10.7136 9.29764 10.3944 9.43324 10.2216C9.56524 10.0536 9.67684 9.8904 9.74884 9.774C9.89044 9.546 9.93484 9.312 9.86044 9.1308C9.52444 8.31 9.17644 7.4928 8.81884 6.6816C8.74804 6.5208 8.53804 6.4056 8.34724 6.3828C8.28244 6.3756 8.21764 6.3684 8.15284 6.3636C7.99168 6.35559 7.8302 6.3572 7.66924 6.3684L7.91044 6.3588L7.91164 6.36Z" fill="white"/>
</g>
<defs>
<clipPath id="clip0_651_1469">
<rect width="24" height="24" fill="white"/>
</clipPath>
</defs>
</svg>
