<svg width="19" height="18" viewBox="0 0 19 18" fill="none" xmlns="http://www.w3.org/2000/svg">
<path d="M9.39441 4.78125C8.89378 4.78125 8.40438 4.92971 7.98812 5.20784C7.57186 5.48598 7.24742 5.88131 7.05584 6.34383C6.86425 6.80636 6.81413 7.31531 6.9118 7.80632C7.00947 8.29734 7.25054 8.74836 7.60455 9.10236C7.95855 9.45637 8.40957 9.69744 8.90059 9.79511C9.3916 9.89278 9.90055 9.84265 10.3631 9.65107C10.8256 9.45949 11.2209 9.13505 11.4991 8.71879C11.7772 8.30253 11.9257 7.81313 11.9257 7.3125C11.9257 6.64117 11.659 5.99734 11.1843 5.52264C10.7096 5.04793 10.0657 4.78125 9.39441 4.78125ZM9.39441 9.28125C9.00503 9.28125 8.62439 9.16578 8.30063 8.94946C7.97687 8.73313 7.72453 8.42565 7.57552 8.06591C7.42651 7.70617 7.38752 7.31032 7.46349 6.92842C7.53945 6.54652 7.72696 6.19572 8.00229 5.92038C8.27763 5.64505 8.62842 5.45754 9.01032 5.38158C9.39222 5.30561 9.78807 5.3446 10.1478 5.49361C10.5076 5.64262 10.815 5.89496 11.0314 6.21872C11.2477 6.54248 11.3632 6.92312 11.3632 7.3125C11.3632 7.57104 11.3122 7.82705 11.2133 8.06591C11.1144 8.30477 10.9693 8.5218 10.7865 8.70462C10.6037 8.88743 10.3867 9.03245 10.1478 9.13139C9.90896 9.23033 9.65295 9.28125 9.39441 9.28125ZM9.39441 1.40625C7.82849 1.40793 6.32718 2.03073 5.21991 3.138C4.11264 4.24527 3.48983 5.74658 3.48816 7.3125C3.48816 9.45141 4.48449 11.7274 6.37097 13.8952C7.2244 14.8813 8.18492 15.7694 9.2348 16.5431C9.28202 16.5761 9.33822 16.5938 9.39582 16.5938C9.45341 16.5938 9.50961 16.5761 9.55683 16.5431C10.6057 15.7693 11.5653 14.8812 12.4178 13.8952C14.3029 11.7274 15.3007 9.45141 15.3007 7.3125C15.299 5.74658 14.6762 4.24527 13.5689 3.138C12.4616 2.03073 10.9603 1.40793 9.39441 1.40625ZM12.003 13.5162C11.2172 14.4161 10.3433 15.2351 9.39441 15.9609C8.44535 15.2342 7.57146 14.4143 6.78582 13.5134C5.53777 12.0797 4.05066 9.83672 4.05066 7.3125C4.05066 5.89525 4.61366 4.53605 5.61581 3.5339C6.61796 2.53175 7.97716 1.96875 9.39441 1.96875C10.8117 1.96875 12.1709 2.53175 13.173 3.5339C14.1752 4.53605 14.7382 5.89525 14.7382 7.3125C14.7382 9.83672 13.2511 12.0797 12.003 13.5162Z" fill="white"/>
</svg>
