<svg width="166" height="58" viewBox="0 0 166 58" fill="none" xmlns="http://www.w3.org/2000/svg">
<path d="M79.3145 22.8292H83.1609C83.1609 23.6784 82.9777 24.4277 82.6281 25.0439C82.2617 25.7099 81.7622 26.2095 81.1295 26.5758C80.4967 26.9421 79.7474 27.1086 78.9149 27.1086C78.0157 27.1086 77.1998 26.8922 76.4672 26.4426C75.7345 25.993 75.1684 25.3269 74.7354 24.461C74.3025 23.5952 74.1027 22.5128 74.1027 21.2473C74.1027 19.9818 74.3192 18.8995 74.7354 18.0336C75.1517 17.1677 75.7179 16.5017 76.4339 16.0521C77.1499 15.6025 77.9325 15.386 78.7983 15.386C79.3311 15.386 79.814 15.4526 80.2636 15.6025C80.7132 15.7524 81.0962 15.9522 81.4625 16.2186C81.8122 16.485 82.1119 16.818 82.3783 17.201C82.6447 17.584 82.8445 18.0169 82.9944 18.4998H84.826C84.6928 17.7838 84.443 17.1344 84.0934 16.5516C83.7437 15.9688 83.2941 15.4693 82.7779 15.0363C82.2617 14.6034 81.6456 14.287 80.9796 14.0539C80.3136 13.8208 79.5809 13.7042 78.815 13.7042C77.8659 13.7042 77.0166 13.8707 76.234 14.2204C75.4514 14.5701 74.7688 15.0696 74.2026 15.719C73.6365 16.3685 73.1869 17.1677 72.8705 18.0836C72.5542 19.016 72.4043 20.0484 72.4043 21.214C72.4043 22.7626 72.6707 24.0947 73.2202 25.227C73.7697 26.3593 74.5356 27.2252 75.5014 27.8246C76.4838 28.4407 77.6161 28.7405 78.9149 28.7405C80.0804 28.7405 81.1128 28.4907 82.012 28.0078C82.9111 27.5249 83.6105 26.8256 84.1267 25.943C84.6428 25.0439 84.8926 23.9948 84.8926 22.7959V21.214H79.3145V22.7959V22.8292Z" fill="white"/>
<path d="M98.3966 22.2797C99.1293 21.8967 99.6621 21.3805 100.028 20.7144C100.378 20.0484 100.561 19.2824 100.561 18.4165C100.561 17.5507 100.378 16.7847 100.028 16.102C99.6787 15.4193 99.1293 14.8864 98.3966 14.5035C97.664 14.1205 96.7315 13.9207 95.5826 13.9207H90.6372V28.5739H92.4189V22.8458H95.6159C95.7491 22.8458 95.849 22.8125 95.9822 22.8125L99.0793 28.5739H101.144L97.8138 22.4795C98.0136 22.4129 98.2467 22.3629 98.4133 22.2797H98.3966ZM92.4022 15.4859H95.516C96.3152 15.4859 96.948 15.6025 97.4308 15.8522C97.9137 16.0853 98.2634 16.435 98.4799 16.868C98.6963 17.3009 98.8129 17.8171 98.8129 18.3999C98.8129 18.9827 98.713 19.4989 98.4799 19.9152C98.2634 20.3315 97.9137 20.6645 97.4308 20.8976C96.948 21.1307 96.3152 21.2473 95.5326 21.2473H92.3856V15.4859H92.4022Z" fill="white"/>
<path d="M115.797 23.4786C115.797 24.1946 115.647 24.8273 115.331 25.3768C115.014 25.9263 114.565 26.3759 113.982 26.6923C113.399 27.0087 112.7 27.1752 111.884 27.1752C111.068 27.1752 110.369 27.0087 109.786 26.6923C109.203 26.3759 108.753 25.943 108.437 25.3768C108.121 24.8273 107.971 24.1779 107.971 23.4786V13.9207H106.189V23.6284C106.189 24.6275 106.422 25.5267 106.889 26.3093C107.355 27.0919 108.021 27.708 108.87 28.1576C109.719 28.6072 110.718 28.8403 111.867 28.8403C113.016 28.8403 114.015 28.6072 114.864 28.1576C115.714 27.708 116.38 27.0919 116.846 26.3093C117.312 25.5267 117.545 24.6275 117.545 23.6284V13.9207H115.764V23.4786H115.797Z" fill="white"/>
<path d="M131.565 14.5368C130.833 14.1205 129.9 13.9207 128.735 13.9207H123.789V28.5739H125.571V23.2288H128.768C129.917 23.2288 130.849 23.029 131.565 22.5961C132.298 22.1798 132.831 21.6136 133.181 20.9143C133.53 20.2149 133.713 19.4156 133.713 18.5664C133.713 17.7172 133.53 16.9179 133.181 16.2186C132.831 15.5192 132.281 14.953 131.549 14.5534L131.565 14.5368ZM131.649 20.1316C131.432 20.5979 131.083 20.9642 130.6 21.2306C130.117 21.4971 129.484 21.6469 128.702 21.6469H125.554V15.4859H128.668C129.467 15.4859 130.1 15.6191 130.583 15.8855C131.066 16.1519 131.416 16.5183 131.632 16.9845C131.849 17.4508 131.965 17.967 131.965 18.5664C131.965 19.1659 131.865 19.6821 131.632 20.1483L131.649 20.1316Z" fill="white"/>
<path d="M148.5 14.6368C147.534 14.0207 146.418 13.7209 145.169 13.7209C143.921 13.7209 142.805 14.0207 141.839 14.6368C140.873 15.2529 140.108 16.1188 139.541 17.2344C138.992 18.3667 138.709 19.6988 138.709 21.2474C138.709 22.796 138.992 24.1281 139.541 25.2604C140.108 26.3927 140.873 27.2586 141.839 27.858C142.805 28.4741 143.921 28.7738 145.169 28.7738C146.418 28.7738 147.534 28.4741 148.5 27.858C149.465 27.2419 150.231 26.376 150.798 25.2604C151.347 24.1281 151.63 22.796 151.63 21.2474C151.63 19.6988 151.347 18.3667 150.798 17.2344C150.248 16.1021 149.465 15.2362 148.5 14.6368ZM149.282 24.4611C148.866 25.327 148.283 25.9931 147.567 26.4426C146.851 26.8922 146.052 27.1087 145.153 27.1087C144.254 27.1087 143.471 26.8922 142.738 26.4426C142.022 25.9931 141.456 25.327 141.023 24.4611C140.607 23.5952 140.391 22.5129 140.391 21.2474C140.391 19.9819 140.607 18.8995 141.023 18.0337C141.44 17.1678 142.022 16.5017 142.738 16.0521C143.454 15.6026 144.254 15.3861 145.153 15.3861C146.052 15.3861 146.851 15.6026 147.567 16.0521C148.283 16.5017 148.849 17.1678 149.282 18.0337C149.699 18.8995 149.915 19.9819 149.915 21.2474C149.915 22.5129 149.699 23.5952 149.282 24.4611Z" fill="white"/>
<path d="M79.6641 42.4113H82.3117C82.3117 42.8109 82.2118 43.1773 82.0119 43.4936C81.8121 43.81 81.5124 44.0764 81.1128 44.2429C80.7132 44.4095 80.2136 44.5094 79.5975 44.5094C78.9148 44.5094 78.3321 44.3429 77.8658 44.0265C77.3996 43.7101 77.0499 43.2272 76.8168 42.6278C76.5837 42.0283 76.4671 41.279 76.4671 40.4298C76.4671 39.5805 76.5837 38.8479 76.8335 38.2484C77.0832 37.649 77.4329 37.1827 77.8991 36.8664C78.3654 36.55 78.9315 36.3835 79.6142 36.3835C79.9306 36.3835 80.2136 36.4168 80.4634 36.4834C80.7298 36.55 80.9463 36.6499 81.1461 36.7831C81.3459 36.9163 81.5124 37.0828 81.6456 37.2826C81.7788 37.4825 81.8787 37.6989 81.9453 37.9487H85.9749C85.8916 37.216 85.6918 36.5333 85.3255 35.9172C84.9758 35.3011 84.5096 34.7683 83.9268 34.3187C83.344 33.8691 82.6946 33.5194 81.9453 33.2697C81.196 33.0199 80.3968 32.9033 79.5309 32.9033C78.5485 32.9033 77.6161 33.0698 76.7502 33.4029C75.8844 33.7359 75.1184 34.2188 74.469 34.8682C73.8196 35.5176 73.3034 36.3002 72.9205 37.2327C72.5541 38.1652 72.371 39.2475 72.371 40.4464C72.371 41.995 72.6707 43.3271 73.2701 44.4428C73.8696 45.5584 74.7188 46.4243 75.8011 47.0404C76.8834 47.6398 78.1322 47.9562 79.5642 47.9562C80.8464 47.9562 81.9786 47.7064 82.9611 47.2069C83.9435 46.7074 84.7261 45.9747 85.2922 45.0256C85.8583 44.0764 86.1414 42.9441 86.1414 41.5954V39.5639H79.6475V42.3946L79.6641 42.4113Z" fill="white"/>
<path d="M90.7037 47.773H101.227V44.5593H94.6833V42.0449H100.728V38.8312H94.6833V36.3168H101.261V33.1198H90.7037V47.773Z" fill="white"/>
<path d="M116.746 40.6295C116.38 40.2465 115.914 39.9135 115.331 39.6304C114.748 39.3474 114.065 39.1309 113.249 38.9477L112.05 38.6813C111.701 38.6147 111.401 38.5314 111.151 38.4315C110.902 38.3483 110.685 38.2317 110.535 38.1318C110.385 38.0319 110.252 37.8987 110.186 37.7488C110.119 37.6156 110.086 37.4491 110.086 37.2659C110.086 37.0495 110.152 36.8663 110.285 36.6998C110.419 36.5333 110.602 36.4 110.868 36.3001C111.135 36.2002 111.468 36.1503 111.867 36.1503C112.517 36.1503 113 36.2835 113.316 36.5499C113.632 36.8163 113.815 37.1827 113.849 37.6656H117.662C117.662 36.6998 117.429 35.8672 116.946 35.1512C116.48 34.4352 115.814 33.869 114.948 33.486C114.082 33.1031 113.066 32.8866 111.884 32.8866C110.702 32.8866 109.703 33.0864 108.803 33.4694C107.904 33.8524 107.205 34.4019 106.705 35.1012C106.206 35.8006 105.956 36.6165 105.956 37.549C105.956 38.6979 106.322 39.5971 107.072 40.2632C107.821 40.9292 108.837 41.3955 110.136 41.6786L111.601 41.9949C112.15 42.1115 112.583 42.2447 112.9 42.3779C113.216 42.5111 113.449 42.661 113.582 42.8442C113.732 43.0107 113.799 43.2105 113.799 43.427C113.799 43.6601 113.716 43.8765 113.566 44.0597C113.416 44.2429 113.199 44.3927 112.916 44.4926C112.633 44.5926 112.267 44.6425 111.851 44.6425C111.351 44.6425 110.902 44.5593 110.552 44.4094C110.202 44.2595 109.902 44.0264 109.703 43.71C109.503 43.3937 109.386 43.0273 109.37 42.5777H105.59C105.59 43.8099 105.856 44.809 106.389 45.5916C106.905 46.3743 107.638 46.9571 108.587 47.34C109.536 47.723 110.652 47.9062 111.917 47.9062C113.183 47.9062 114.215 47.7397 115.098 47.39C115.98 47.0403 116.663 46.5408 117.146 45.8581C117.629 45.192 117.862 44.3761 117.862 43.4103C117.862 42.8442 117.762 42.3446 117.595 41.8617C117.429 41.3955 117.146 40.9625 116.779 40.5796L116.746 40.6295Z" fill="white"/>
<path d="M121.625 36.3168H126.037V47.773H129.95V36.3168H134.363V33.1198H121.625V36.3168Z" fill="white"/>
<path d="M138.526 47.773H149.066V44.5593H142.505V42.0449H148.55V38.8312H142.505V36.3168H149.082V33.1198H138.526V47.773Z" fill="white"/>
<path d="M161.671 47.773H166L163.019 42.2947C163.769 41.9284 164.385 41.4288 164.818 40.7628C165.284 40.0467 165.517 39.1642 165.517 38.1152C165.517 37.0661 165.284 36.1836 164.834 35.4343C164.385 34.685 163.752 34.1188 162.936 33.7192C162.12 33.3196 161.171 33.1198 160.089 33.1198H153.761V47.773H157.741V42.9274H159.123L161.687 47.773H161.671ZM157.724 36.3002H159.123C159.589 36.3002 159.989 36.3668 160.322 36.4833C160.655 36.6166 160.905 36.7997 161.088 37.0661C161.271 37.3326 161.354 37.6656 161.354 38.0985C161.354 38.5315 161.271 38.8478 161.088 39.1143C160.905 39.364 160.655 39.5639 160.322 39.6804C159.989 39.797 159.589 39.8636 159.123 39.8636H157.724V36.3168V36.3002Z" fill="white"/>
<path d="M51.9568 20.1482C52.3897 16.2351 52.4397 11.8392 51.9401 6.87704H7.44848C3.76859 44.0097 29.6943 50.5871 29.6943 50.5871C29.6943 50.5871 43.3815 47.1236 49.4591 30.9717L43.3149 31.0216C38.919 42.1947 29.6943 43.6268 29.6943 43.6268C29.6943 43.6268 12.4105 40.13 13.5428 13.471H45.8459C45.9791 16.4017 45.8292 18.7828 45.7293 20.1649H20.7027C20.1699 34.6683 29.6943 37.3492 29.6943 37.3492C29.6943 37.3492 33.8571 36.0837 36.4213 31.0716L29.6777 31.1215V24.7773H57.7181C51.4573 51.9358 29.6777 57.4807 29.6777 57.4807C29.711 57.4474 -4.37379 48.7887 0.471676 0H58.9336C59.6995 7.65966 59.4997 14.3535 58.6339 20.1482H51.9568Z" fill="url(#paint0_linear_650_1326)"/>
<defs>
<linearGradient id="paint0_linear_650_1326" x1="0.0054462" y1="28.7237" x2="59.4165" y2="28.7237" gradientUnits="userSpaceOnUse">
<stop stop-color="#186B99"/>
<stop offset="1" stop-color="#22A5AB"/>
</linearGradient>
</defs>
</svg>
